<svg width="24" height="26" viewBox="0 0 24 26" fill="none" xmlns="http://www.w3.org/2000/svg">
<path d="M12.3564 6C13.6876 6 15.3564 5.20661 16.3501 4.14876C17.2501 3.19008 17.9064 1.85124 17.9064 0.512397C17.9064 0.330579 17.8876 0.14876 17.8501 0C16.3689 0.0495868 14.5876 0.876034 13.5189 1.98347C12.6751 2.82645 11.9064 4.14876 11.9064 5.50413C11.9064 5.70248 11.9439 5.90083 11.9626 5.96694C12.0564 5.98347 12.2064 6 12.3564 6ZM7.66887 26C9.48762 26 10.2939 24.9256 12.5626 24.9256C14.8689 24.9256 15.3751 25.9669 17.4001 25.9669C19.3876 25.9669 20.7189 24.3471 21.9751 22.7603C23.3814 20.9421 23.9626 19.157 24.0001 19.0744C23.8689 19.0413 20.0626 17.6694 20.0626 13.8182C20.0626 10.4793 23.0626 8.97521 23.2314 8.8595C21.2439 6.34711 18.2251 6.28099 17.4001 6.28099C15.1689 6.28099 13.3501 7.47107 12.2064 7.47107C10.9689 7.47107 9.33762 6.34711 7.40637 6.34711C3.73137 6.34711 0.00012207 9.02479 0.00012207 14.0826C0.00012207 17.2231 1.38762 20.5455 3.09387 22.6942C4.55637 24.5124 5.83137 26 7.66887 26Z" fill="#000100"/>
</svg>
