<svg width="22" height="18" viewBox="0 0 22 18" fill="none" xmlns="http://www.w3.org/2000/svg">
<path d="M20.9931 3.91724V13.9142C20.9931 14.577 20.7298 15.2127 20.2611 15.6814C19.7924 16.1501 19.1567 16.4134 18.4939 16.4134H3.4985C2.83566 16.4134 2.19997 16.1501 1.73127 15.6814C1.26258 15.2127 0.999268 14.577 0.999268 13.9142V3.91724" stroke="#1678F2" stroke-width="1.67948" stroke-linecap="round" stroke-linejoin="round"/>
<path d="M20.9931 3.91732C20.9931 3.25448 20.7298 2.61879 20.2611 2.1501C19.7924 1.6814 19.1567 1.41809 18.4939 1.41809H3.4985C2.83566 1.41809 2.19997 1.6814 1.73127 2.1501C1.26258 2.61879 0.999268 3.25448 0.999268 3.91732L9.6716 9.33232C10.0688 9.58057 10.5278 9.71221 10.9962 9.71221C11.4646 9.71221 11.9236 9.58057 12.3208 9.33232L20.9931 3.91732Z" stroke="#1678F2" stroke-width="1.67948" stroke-linecap="round" stroke-linejoin="round"/>
</svg>
