<svg width="28" height="26" viewBox="0 0 28 26" fill="none" xmlns="http://www.w3.org/2000/svg">
<path fill-rule="evenodd" clip-rule="evenodd" d="M27.5484 13.5039C27.5484 12.6096 27.459 11.7498 27.2929 10.9243H14.0555V15.8026H21.6197C21.2939 17.379 20.3037 18.7147 18.8151 19.6089V22.7732H23.3574C26.0151 20.5777 27.5484 17.3446 27.5484 13.5039Z" fill="#4285F4"/>
<path fill-rule="evenodd" clip-rule="evenodd" d="M14.0554 25.8287C17.8502 25.8287 21.0318 24.6994 23.3573 22.7733L18.8149 19.609C17.5563 20.3657 15.9464 20.8128 14.0554 20.8128C10.3946 20.8128 7.29615 18.5944 6.19091 15.6135H1.49524V18.881C3.80794 23.0026 8.5611 25.8287 14.0554 25.8287Z" fill="#34A853"/>
<path fill-rule="evenodd" clip-rule="evenodd" d="M6.19074 15.6135C5.90964 14.8568 5.74992 14.0485 5.74992 13.2173C5.74992 12.3861 5.90964 11.5779 6.19074 10.8212V7.55371H1.49507C0.543158 9.25624 0.00012207 11.1823 0.00012207 13.2173C0.00012207 15.2523 0.543158 17.1784 1.49507 18.881L6.19074 15.6135Z" fill="#FBBC05"/>
<path fill-rule="evenodd" clip-rule="evenodd" d="M14.0551 5.62182C16.1186 5.62182 17.9714 6.25812 19.428 7.50778L23.4592 3.89063C21.0251 1.85562 17.8436 0.605957 14.0551 0.605957C8.56086 0.605957 3.80769 3.43204 1.495 7.55364L6.19066 10.8211C7.2959 7.84026 10.3944 5.62182 14.0551 5.62182Z" fill="#EA4335"/>
</svg>
