<svg width="61" height="61" viewBox="0 0 61 61" fill="none" xmlns="http://www.w3.org/2000/svg">
<g clip-path="url(#clip0_5_11873)">
<path d="M31.2624 57.4423C31.0082 57.4423 30.7541 57.4423 30.4999 57.4423C29.9916 57.4423 29.7374 57.1882 29.2291 56.6798L12.9624 39.9048C11.9457 38.8882 11.9457 37.3632 12.9624 36.3465C13.9791 35.3298 15.5041 35.3298 16.5207 36.3465L31.0082 51.3423L50.5791 31.2632C52.1041 29.7382 53.1207 27.959 53.6291 26.1798C55.1541 21.3507 53.8832 16.5215 50.5791 12.9632C49.0541 11.184 46.7666 10.1673 44.2249 10.1673C40.6666 10.1673 36.5999 12.2007 33.0416 15.759C32.5332 16.2673 32.0249 16.5215 31.2624 16.5215C30.4999 16.5215 29.9916 16.2673 29.4832 15.759C25.9249 12.2007 21.8582 10.1673 18.0457 10.1673C15.5041 10.1673 13.4707 11.184 11.4374 12.9632C8.38741 16.0132 7.11658 20.5882 8.13325 25.1632C8.64158 26.6882 7.62491 27.959 6.35408 28.2132C5.08325 28.4673 3.55825 27.7048 3.30408 26.434C1.77908 20.334 3.55825 13.9798 8.13325 9.40482C10.9291 6.60898 14.2332 5.08398 18.0457 5.08398C22.3666 5.08398 26.9416 7.11732 31.0082 10.6757C35.3291 7.11732 39.9041 5.08398 44.2249 5.08398C48.0374 5.08398 51.5957 6.60898 54.3916 9.40482C59.2207 14.234 60.7457 21.0965 58.7124 27.7048C57.9499 30.2465 56.4249 32.7882 54.3916 34.8215L33.0416 56.6798C32.5332 57.1882 32.0249 57.4423 31.2624 57.4423Z" fill="#1678F2"/>
<path d="M30.7541 42.1914C29.4833 42.1914 28.7208 41.4289 28.2125 40.4122L25.1625 30.4997L24.4 33.0414C24.1458 34.0581 23.1291 34.8206 21.8583 34.8206H5.08329C3.55829 34.8206 2.54163 33.8039 2.54163 32.2789C2.54163 30.7539 3.55829 29.7372 5.08329 29.7372H20.0791L22.3666 21.0956C22.875 20.0789 23.8916 19.3164 24.9083 19.3164C25.925 19.3164 26.9416 20.0789 27.45 21.0956L31.0083 32.2789L34.3125 23.8914C34.8208 22.8747 35.5833 22.3664 36.6 22.3664C37.6166 22.3664 38.6333 23.1289 38.8875 23.8914L41.175 29.7372H44.7333C46.2583 29.7372 47.275 30.7539 47.275 32.2789C47.275 33.8039 46.2583 34.8206 44.7333 34.8206H39.3958C38.3791 34.8206 37.3625 34.0581 37.1083 33.2956L36.6 31.7706L33.0416 40.6664C32.7875 41.6831 31.7708 42.1914 30.7541 42.1914Z" fill="#1678F2"/>
</g>
<defs>
<clipPath id="clip0_5_11873">
<rect width="57.1875" height="52.3583" fill="white" transform="translate(2.54163 5.08398)"/>
</clipPath>
</defs>
</svg>
