<svg width="24" height="25" viewBox="0 0 24 25" fill="none" xmlns="http://www.w3.org/2000/svg">
<path d="M20.2267 11.5823C20.2267 18.0349 13.6178 22.0102 12.2443 22.7674C12.1682 22.8093 12.0827 22.8314 11.9959 22.8314C11.909 22.8314 11.8235 22.8093 11.7474 22.7674C10.3729 22.0102 3.76599 18.0349 3.76599 11.5823C3.76599 6.43831 6.85238 2.83752 11.9964 2.83752C17.1404 2.83752 20.2267 6.43831 20.2267 11.5823Z" stroke="#1678F2" stroke-width="1.67948" stroke-linecap="round" stroke-linejoin="round"/>
<path d="M7.88123 11.0671C7.88123 12.1585 8.31479 13.2052 9.08654 13.977C9.85828 14.7487 10.905 15.1823 11.9964 15.1823C13.0878 15.1823 14.1345 14.7487 14.9063 13.977C15.678 13.2052 16.1116 12.1585 16.1116 11.0671C16.1116 9.97568 15.678 8.92896 14.9063 8.15721C14.1345 7.38547 13.0878 6.9519 11.9964 6.9519C10.905 6.9519 9.85828 7.38547 9.08654 8.15721C8.31479 8.92896 7.88123 9.97568 7.88123 11.0671V11.0671Z" stroke="#1678F2" stroke-width="1.67948" stroke-linecap="round" stroke-linejoin="round"/>
</svg>
