<svg width="22" height="23" viewBox="0 0 22 23" fill="none" xmlns="http://www.w3.org/2000/svg">
<path d="M13.6974 21.02L13.7083 21.0276C14.6525 21.6288 15.7735 21.8899 16.8861 21.7677C17.9987 21.6455 19.0363 21.1474 19.8275 20.3556L20.5148 19.6683C20.6672 19.5161 20.788 19.3353 20.8704 19.1364C20.9529 18.9375 20.9953 18.7242 20.9953 18.5089C20.9953 18.2936 20.9529 18.0804 20.8704 17.8814C20.788 17.6825 20.6672 17.5018 20.5148 17.3495L17.6159 14.4527C17.4636 14.3004 17.2829 14.1796 17.084 14.0972C16.885 14.0147 16.6718 13.9723 16.4565 13.9723C16.2412 13.9723 16.0279 14.0147 15.829 14.0972C15.6301 14.1796 15.4493 14.3004 15.2971 14.4527C14.9897 14.76 14.5729 14.9326 14.1383 14.9326C13.7037 14.9326 13.2868 14.76 12.9795 14.4527L8.34414 9.81633C8.03686 9.50896 7.86424 9.09212 7.86424 8.6575C7.86424 8.22287 8.03686 7.80604 8.34414 7.49867C8.49645 7.34646 8.61728 7.16572 8.69972 6.96679C8.78215 6.76786 8.82458 6.55463 8.82458 6.3393C8.82458 6.12396 8.78215 5.91074 8.69972 5.71181C8.61728 5.51288 8.49645 5.33214 8.34414 5.17992L5.44625 2.28312C5.13887 1.97584 4.72204 1.80322 4.28742 1.80322C3.85279 1.80322 3.43596 1.97584 3.12859 2.28312L2.44018 2.97044C1.6486 3.76177 1.15068 4.79947 1.02869 5.91208C0.9067 7.02469 1.16794 8.14563 1.76925 9.08967L1.7758 9.1006C4.95144 13.7991 8.99833 17.8452 13.6974 21.02V21.02Z" stroke="#1678F2" stroke-width="1.67948" stroke-linecap="round" stroke-linejoin="round"/>
</svg>
